# xmcd
#
# Track frame offsets: 
#        150
#        20780
#        39579
#        56797
#        73374
#        93701
#        110093
#        122410
#        138084
#        156736
#        175101
#        200927
#        221031
#        247006
#        266425
#        288233
#        308919
#
# Disc length: 4440 seconds
#
# Revision: 1
# Processed by: cddbd v1.5.2PL0 Copyright (c) Steve Scherf et al.
# Submitted via: ExactAudioCopy v1.0b3
#
DISCID=15115611
DTITLE=Various Artist - One Shot 1991 [cd2]
DYEAR=1900
DGENRE=pop
TTITLE0=Lisa Stansfield - Change
TTITLE1=Simply Red - Stars
TTITLE2=Shanice - I love your smile
TTITLE3=Vanessa Williams - Save the best for last
TTITLE4=Dj Jaxxy Jeff and The Fresh Prince - Summertime
TTITLE5=Brothers in rhythm - Such a good feeling
TTITLE6=Right Said Fred - I'm too sexy
TTITLE7=Extreme - Hole harted
TTITLE8=Wilson Phillips - You're in love
TTITLE9=Color me badd -  I wana sex U up
TTITLE10=FPI Project - Let's go!
TTITLE11=Black Machine - How gee
TTITLE12=Dr. Alban - Hello Africa
TTITLE13=Heavy D. and the boys feat. Aaron Hall - Now that we've found
TTITLE13=love
TTITLE14=Tony Childs - House of hope
TTITLE15=Angélique Kidjo - Batonga
TTITLE16=Young Disciples - Apparently nothin' (soul river)
EXTD=
EXTT0=
EXTT1=
EXTT2=
EXTT3=
EXTT4=
EXTT5=
EXTT6=
EXTT7=
EXTT8=
EXTT9=
EXTT10=
EXTT11=
EXTT12=
EXTT13=
EXTT14=
EXTT15=
EXTT16=
PLAYORDER=
